:SAMPLES-PER-SECOND 30
:FRAME-RANGE 1-4244
:FULLY-SPECIFIED
:DEGREES
3449
root  -34.6711 34.7641 -73.9804 14.4448 -19.2093 -1.41541
RightUpLeg  -44.1745 -0.582575 -4.50752
RightLeg  84.0431 0.458608 2.57088
RightFoot  -18.7372 0.303257 6.65296
RightToes  -1.33073e-015 0 -3.6325e-017
Spine  31.8877 -0.544467 -1.70644
Spine1  11.6738 1.87018 -7.71698
HEad  5.78846 13.117 -11.9215
LeftShoulder1  3.67451 -11.9417 -17.721
LeftArm  -7.82002 -37.7452 -47.3279
LeftForeArm  24.4712 7.66693 -11.0193
LeftHand  0.0538107 6.19542 10.7389
RightShoulder  3.08239 8.70661 19.33
RightArm  -27.5353 38.5806 56.9768
RightForeArm  65.1796 -4.2803 -3.54475
RightHand  -0.101823 -4.83962 -19.307
LeftUpLeg  -56.5933 5.8848 -5.31437
LeftLeg  42.9806 5.55591 5.94369
LeftFoot  -1.9813 -0.311956 3.95561
LeftToes  2.72522e-012 8.43823e-011 6.24977e-012
3450
root  -35.0264 34.6913 -73.0811 14.5545 -17.5765 -1.55676
RightUpLeg  -47.4434 0.448987 -4.47154
RightLeg  81.2591 0.388367 0.960678
RightFoot  -21.3178 0.465299 6.98156
RightToes  -1.33073e-015 0 -3.6325e-017
Spine  33.2236 -0.774563 -1.62721
Spine1  11.8517 1.8365 -7.65746
HEad  4.88724 12.8376 -12.508
LeftShoulder1  3.64437 -12.5719 -16.4709
LeftArm  -8.31342 -41.2528 -46.5354
LeftForeArm  24.2134 7.63464 -10.8003
LeftHand  0.0470029 6.13698 10.5299
RightShoulder  3.07206 9.06221 18.443
RightArm  -26.4842 41.0911 56.8585
RightForeArm  64.0535 -4.39356 -3.12875
RightHand  -0.135736 -4.63483 -19.3267
LeftUpLeg  -56.4671 5.18109 -5.03544
LeftLeg  45.751 4.78344 5.68458
LeftFoot  -4.76313 -0.188249 3.77447
LeftToes  2.72522e-012 8.43823e-011 6.24977e-012
3451
root  -35.363 34.6239 -72.2019 14.4926 -15.7248 -2.00354
RightUpLeg  -50.1194 1.36873 -4.56038
RightLeg  76.592 0.0966053 -0.844608
RightFoot  -22.8337 0.560385 7.10205
RightToes  -1.33073e-015 0 -3.6325e-017
Spine  35.026 -1.13599 -1.22653
Spine1  11.5432 1.6157 -7.2762
HEad  4.19939 12.7799 -12.775
LeftShoulder1  3.62082 -13.3281 -15.171
LeftArm  -8.90552 -44.6098 -45.3661
LeftForeArm  24.8834 7.61142 -10.69
LeftHand  0.0517516 6.21651 10.2694
RightShoulder  3.02706 9.35453 17.4349
RightArm  -25.1479 44.0103 56.624
RightForeArm  63.5866 -4.50969 -2.55743
RightHand  -0.116712 -4.76197 -19.7502
LeftUpLeg  -56.0095 4.63249 -4.46462
LeftLeg  48.3159 3.84471 5.08213
LeftFoot  -7.47374 -0.0814106 3.7432
LeftToes  2.72522e-012 8.43823e-011 6.24977e-012
3452
root  -35.6893 34.5214 -71.3339 14.5587 -14.0258 -2.72083
RightUpLeg  -52.6724 2.07546 -4.94074
RightLeg  70.7136 -0.0635344 -1.0429
RightFoot  -23.3305 0.57652 6.99166
RightToes  -1.33073e-015 0 -3.6325e-017
Spine  37.5321 -1.70779 -0.457138
Spine1  9.88346 1.26337 -7.17586
HEad  3.81189 13.0488 -12.583
LeftShoulder1  3.51841 -13.9568 -13.6445
LeftArm  -9.60081 -47.0496 -44.0097
LeftForeArm  25.2843 7.58825 -10.5665
LeftHand  0.0563788 6.26945 10.2845
RightShoulder  3.01759 9.76278 16.5428
RightArm  -23.7784 46.9212 56.2964
RightForeArm  64.2022 -4.59359 -1.94718
RightHand  -0.128097 -4.69844 -19.8733
LeftUpLeg  -55.6648 4.19255 -3.55858
LeftLeg  50.9426 3.14091 4.63684
LeftFoot  -10.322 0.0305545 3.54365
LeftToes  2.72522e-012 8.43823e-011 6.24977e-012
3453
root  -36.0183 34.4053 -70.5093 14.7277 -12.5037 -3.38538
RightUpLeg  -55.0733 2.97215 -5.7901
RightLeg  63.9379 0.146232 -0.251908
RightFoot  -23.379 0.650779 7.66878
RightToes  -1.33073e-015 0 -3.6325e-017
Spine  40.7916 -2.23924 0.110656
Spine1  6.7446 0.856984 -7.06784
HEad  3.87964 13.3595 -11.9813
LeftShoulder1  3.41471 -14.5017 -12.3098
LeftArm  -10.0734 -48.5718 -42.4704
LeftForeArm  24.7132 7.5939 -10.5696
LeftHand  0.0623028 6.35247 10.1663
RightShoulder  3.04896 10.2013 15.9783
RightArm  -22.342 49.5504 55.6784
RightForeArm  64.8086 -4.71367 -1.12545
RightHand  -0.100038 -4.87342 -20.3389
LeftUpLeg  -55.4177 3.56845 -2.47052
LeftLeg  53.3816 2.56255 4.21928
LeftFoot  -13.0504 0.121632 2.89699
LeftToes  2.72522e-012 8.43823e-011 6.24977e-012
3454
root  -36.3238 34.239 -69.7049 15.0145 -11.4809 -4.40137
RightUpLeg  -57.2789 4.14906 -6.6308
RightLeg  56.6841 0.503057 0.395064
RightFoot  -22.7748 0.700378 8.52853
RightToes  -1.33073e-015 0 -3.6325e-017
Spine  43.6903 -2.48 0.865734
Spine1  4.07772 0.644478 -6.56269
HEad  3.71866 13.7727 -11.6009
LeftShoulder1  3.33373 -14.8781 -11.3742
LeftArm  -10.8845 -50.0844 -40.8058
LeftForeArm  24.811 7.57509 -10.4561
LeftHand  0.0609213 6.33344 10.1893
RightShoulder  3.07287 10.7611 15.181
RightArm  -21.0834 52.3502 54.7683
RightForeArm  65.3338 -4.82678 -0.356182
RightHand  -0.105216 -4.84456 -20.3763
LeftUpLeg  -55.3446 3.33846 -1.05136
LeftLeg  56.0066 2.12842 3.94607
LeftFoot  -15.8023 0.196816 2.61637
LeftToes  2.72522e-012 8.43823e-011 6.24977e-012
